<?xml version="1.0" encoding="utf-8"?>
<!-- Generator: Adobe Illustrator 26.0.1, SVG Export Plug-In . SVG Version: 6.00 Build 0)  -->
<svg version="1.1" id="Layer_1" xmlns="http://www.w3.org/2000/svg" xmlns:xlink="http://www.w3.org/1999/xlink" x="0px" y="0px"
	 viewBox="0 0 56.9 66.8" style="enable-background:new 0 0 56.9 66.8;" xml:space="preserve">
<style type="text/css">
	.st0{fill:#FFFFFF;}
</style>
<g id="Ebene_1">
	<g>
		<g>
			<path class="st0" d="M36.3,61.2h-2V39.1L6.9,55V11.9l29.4,17V61.2L36.3,61.2z M8.9,15.3v36.1l25.4-14.7V30L8.9,15.3z"/>
		</g>
		<g>
			<path class="st0" d="M13.7,58.9v-51l29.4,17v32.3h-2V43.1L13.7,58.9z M15.7,11.4v44.1l25.4-14.7V26.1L15.7,11.4z"/>
		</g>
		<g>
			<path class="st0" d="M20.6,62.9v-59L50,21v32.3h-2v-6.2L20.6,62.9z M22.6,7.4v52L48,44.7V22.1L22.6,7.4z"/>
		</g>
		<g>
			<path class="st0" d="M27.4,66.8V0l29.4,17v32.8L27.4,66.8z M29.4,3.5v59.9l25.4-14.7V18.2L29.4,3.5z"/>
		</g>
		<g>
			<polygon class="st0" points="0,51 0,17.6 2,17.6 2,47.5 27.9,32.5 28.9,34.3 			"/>
		</g>
	</g>
</g>
<g id="Ebene_2">
</g>
</svg>
